<?xml version="1.0" standalone="no"?>
<!DOCTYPE svg PUBLIC "-//W3C//DTD SVG 20010904//EN"
 "http://www.w3.org/TR/2001/REC-SVG-20010904/DTD/svg10.dtd">
<svg version="1.0" xmlns="http://www.w3.org/2000/svg"
 width="700.000000pt" height="700.000000pt" viewBox="0 0 700.000000 700.000000"
 preserveAspectRatio="xMidYMid meet">
<metadata>
Created by potrace 1.11, written by Peter Selinger 2001-2013
</metadata>
<g transform="translate(0.000000,700.000000) scale(0.100000,-0.100000)"
fill="#000000" stroke="none">
<path d="M765 6993 c-192 -24 -383 -120 -516 -259 -108 -114 -168 -216 -216
-371 l-28 -88 0 -2775 0 -2775 28 -88 c95 -304 300 -509 604 -604 l88 -28
2775 0 2775 0 88 28 c304 95 509 300 604 604 l28 88 0 2775 0 2775 -28 88
c-48 155 -108 257 -216 371 -107 111 -244 193 -403 239 l-73 22 -2740 1
c-1507 1 -2753 -1 -2770 -3z m2507 -873 c-6 -16 -16 -99 -23 -184 -10 -122
-10 -185 -1 -298 16 -189 16 -214 -4 -222 -9 -3 -43 -6 -77 -6 -34 0 -93 -9
-132 -20 -105 -29 -115 -28 -115 17 0 35 25 122 55 188 7 17 23 55 35 85 27
69 65 155 89 200 99 190 175 311 179 287 2 -10 -1 -31 -6 -47z m-1120 -337
c75 -164 235 -389 372 -523 25 -24 46 -50 46 -56 0 -7 -28 -34 -61 -60 -34
-26 -91 -74 -127 -106 -37 -32 -71 -58 -77 -58 -12 0 -24 33 -82 215 -43 139
-70 253 -88 380 -16 109 -20 245 -7 245 4 0 15 -17 24 -37z m1908 -51 c0 -4
-29 -37 -65 -72 -65 -64 -136 -164 -190 -268 -15 -29 -31 -55 -36 -57 -4 -3
-49 8 -100 25 -50 16 -106 30 -123 30 -18 0 -40 6 -50 13 -16 12 -13 18 46 71
116 106 252 185 418 240 80 27 100 30 100 18z m-535 -447 c266 -57 509 -201
671 -400 136 -167 234 -381 259 -564 l7 -54 -38 6 c-22 4 -64 12 -94 17 -141
28 -173 32 -283 37 -65 3 -161 0 -213 -6 -268 -32 -590 -152 -884 -331 -143
-87 -181 -104 -319 -140 -53 -14 -313 -14 -361 0 -19 5 -46 10 -61 10 -42 0
-59 21 -69 85 -16 91 -13 289 5 390 83 471 445 850 901 945 115 24 377 26 479
5z m1325 -99 c30 -8 46 -14 35 -15 -33 -2 -244 -75 -305 -106 -30 -15 -99 -57
-153 -93 l-99 -65 -108 114 c-121 128 -120 126 -15 148 33 7 71 15 85 18 105
24 461 23 560 -1z m-2906 -404 c56 -57 116 -113 134 -124 29 -18 32 -24 26
-52 -3 -17 -9 -35 -13 -41 -9 -13 -27 -76 -41 -145 -7 -30 -14 -61 -16 -69 -6
-20 -84 89 -132 185 -63 126 -144 399 -124 419 3 3 19 -12 36 -32 16 -21 75
-84 130 -141z m2622 -181 c16 -5 54 -14 84 -21 103 -22 290 -97 305 -120 7
-11 -29 -17 -135 -25 -47 -4 -118 -15 -157 -26 -96 -25 -113 -25 -113 4 0 12
-12 54 -26 92 -40 108 -40 105 -12 105 14 0 38 -4 54 -9z m940 -2580 c52 -24
56 -31 38 -67 -24 -46 -29 -48 -80 -30 -124 42 -195 1 -224 -129 -16 -70 -9
-74 123 -77 l112 -3 -3 -35 c-6 -55 -15 -60 -107 -60 -45 0 -97 -3 -114 -6
l-31 -6 0 -260 0 -259 -52 3 -53 3 4 256 4 256 -24 6 c-13 4 -43 7 -66 7 -37
0 -43 3 -49 26 -4 14 -2 36 5 50 9 21 17 24 70 24 l59 0 16 66 c31 122 76 187
158 228 65 32 152 35 214 7z m-652 -60 c22 -23 27 -36 22 -56 -14 -54 -69 -81
-107 -52 -31 24 -42 56 -29 88 24 56 72 64 114 20z m-3080 -26 c4 -14 4 -36 0
-50 -6 -24 -7 -24 -138 -27 l-131 -3 0 -370 0 -370 -57 -3 -58 -3 0 351 c0
223 -4 358 -10 371 -10 17 -22 19 -133 19 -82 0 -127 4 -135 12 -13 13 -17 80
-5 91 3 4 154 7 334 7 l327 0 6 -25z m479 -227 c85 -42 165 -147 183 -237 8
-37 26 -32 -326 -82 -80 -11 -151 -22 -157 -24 -17 -6 -16 -60 1 -93 33 -62
104 -102 183 -102 61 0 142 45 172 94 26 41 48 50 85 37 34 -13 33 -27 -6 -85
-60 -92 -146 -138 -258 -139 -106 -1 -166 21 -225 84 -68 73 -85 116 -85 226
0 76 4 102 24 146 74 169 262 249 409 175z m1485 0 c84 -39 182 -168 182 -239
0 -34 -3 -35 -245 -69 -106 -15 -204 -30 -234 -36 -21 -4 -23 -9 -18 -44 19
-140 218 -199 333 -98 19 17 42 44 50 59 16 32 56 39 88 16 18 -13 18 -15 1
-50 -60 -127 -222 -199 -364 -163 -98 25 -156 69 -199 151 -23 45 -26 61 -26
155 0 94 3 110 26 156 36 69 69 106 128 144 79 51 192 58 278 18z m2248 -7
c65 -31 106 -74 149 -158 14 -28 25 -63 25 -77 0 -28 0 -28 -120 -46 -41 -6
-102 -15 -135 -20 -33 -5 -99 -15 -148 -21 -48 -7 -92 -17 -97 -24 -16 -19 12
-87 52 -127 23 -23 56 -43 88 -52 86 -26 146 -4 227 81 47 50 54 54 82 48 54
-12 36 -70 -44 -144 -66 -60 -124 -84 -210 -85 -133 0 -229 55 -282 162 -25
51 -28 67 -27 157 0 88 3 106 26 150 64 123 189 201 303 189 28 -3 77 -18 111
-33z m-3296 -40 c0 -39 5 -73 11 -76 5 -4 36 18 67 48 89 84 148 107 224 87
57 -15 101 -50 123 -97 24 -50 36 -207 28 -386 -6 -133 -7 -139 -30 -150 -16
-7 -30 -7 -48 1 l-25 12 0 218 c0 211 -1 220 -23 253 -74 109 -186 59 -278
-126 l-41 -80 7 -136 7 -137 -46 -4 c-74 -5 -76 -2 -76 120 0 59 -5 196 -10
305 -6 109 -8 203 -5 208 4 5 31 9 61 9 l54 0 0 -69z m1490 -25 c0 -57 4 -97
11 -101 6 -4 40 24 77 63 111 117 197 142 268 80 43 -38 73 -98 74 -146 0 -28
-5 -35 -35 -48 -47 -19 -54 -18 -61 14 -19 80 -60 111 -120 92 -39 -13 -121
-94 -171 -168 l-35 -54 3 -137 4 -136 -49 -3 c-32 -2 -52 1 -57 10 -5 7 -9 54
-9 104 0 50 -5 182 -10 294 -6 112 -9 209 -6 217 4 9 23 13 61 13 l55 0 0 -94z
m669 -138 c-1 -106 -4 -236 -8 -288 l-6 -95 -49 -3 -49 -3 6 280 c3 154 8 285
12 291 3 5 26 10 51 10 l44 0 -1 -192z"/>
<path d="M2055 1631 c-64 -29 -126 -117 -111 -157 7 -17 14 -17 221 7 154 18
158 21 110 92 -49 71 -139 95 -220 58z"/>
<path d="M3535 1627 c-59 -28 -105 -87 -105 -135 l0 -33 68 6 c37 4 89 11 115
16 26 5 70 9 96 9 61 0 79 17 61 59 -14 36 -56 76 -93 90 -44 17 -87 13 -142
-12z"/>
<path d="M5770 1626 c-51 -26 -100 -88 -103 -131 l-2 -30 65 2 c61 2 216 19
268 29 30 6 29 38 -4 81 -57 75 -139 93 -224 49z"/>
</g>
</svg>
